<mxfile host="app.diagrams.net" modified="2024-05-25T14:02:29.131Z" agent="Mozilla/5.0 (Windows NT 10.0; Win64; x64) AppleWebKit/537.36 (KHTML, like Gecko) Chrome/122.0.0.0 Safari/537.36 Edg/122.0.0.0" version="24.4.8" etag="9Kn_l45Dhrnr44ZaQ0Ji" type="github">
  <diagram name="第 1 页" id="Ka0X_XW97SJM82wUtWK5">
    <mxGraphModel>
      <root>
        <mxCell id="0" />
        <mxCell id="1" parent="0" />
      </root>
    </mxGraphModel>
  </diagram>
</mxfile>
